<svg width="80" height="80" viewBox="0 0 80 80" fill="none" xmlns="http://www.w3.org/2000/svg">
<g clip-path="url(#clip0)">
<path d="M79.7121 62.7881L75.0656 49.2657C77.3053 44.6873 78.4889 39.5954 78.4969 34.4721C78.5107 25.5638 75.0641 17.1408 68.7919 10.7549C62.5184 4.36765 54.1587 0.772174 45.2525 0.63108C36.0173 0.485142 27.3366 3.99796 20.8105 10.5239C14.5177 16.8166 11.0274 25.1124 10.9169 33.9774C4.71472 38.6471 1.05393 45.9276 1.06596 53.704C1.07174 57.3431 1.89081 60.9604 3.44284 64.2315L0.242364 73.5453C-0.307793 75.1464 0.0940826 76.8848 1.29127 78.082C2.13377 78.9247 3.24456 79.3733 4.3869 79.3733C4.86753 79.3733 5.35378 79.2939 5.828 79.1309L15.1419 75.9305C18.413 77.4825 22.0304 78.3016 25.6694 78.3073C25.6826 78.3073 25.6951 78.3073 25.7082 78.3073C33.6004 78.307 40.9364 74.5519 45.589 68.1976C50.4308 68.0701 55.2212 66.8981 59.552 64.7795L73.0745 69.4261C73.638 69.6197 74.2158 69.714 74.7869 69.714C76.1444 69.714 77.4644 69.1809 78.4658 68.1793C79.8883 66.7567 80.3658 64.6909 79.7121 62.7881ZM25.7079 73.5455C25.6977 73.5455 25.6869 73.5455 25.6768 73.5455C22.4558 73.5406 19.2572 72.7465 16.4274 71.2494C15.8455 70.9417 15.1624 70.8884 14.5402 71.1022L4.98972 74.3839L8.27144 64.8336C8.48519 64.2112 8.43207 63.5281 8.12426 62.9464C6.62706 60.1164 5.833 56.9179 5.828 53.6968C5.82003 48.5157 7.83551 43.6049 11.36 39.9277C12.5113 46.9459 15.8561 53.4131 21.0408 58.5056C26.1873 63.5604 32.6563 66.7789 39.6364 67.8311C35.9507 71.4637 30.9826 73.5455 25.7079 73.5455ZM75.0983 64.8122C74.9628 64.9476 74.8022 64.9845 74.6216 64.9223L60.1453 59.9479C59.8939 59.8615 59.6323 59.8187 59.3717 59.8187C58.9875 59.8187 58.6047 59.9117 58.2583 60.0951C54.125 62.2817 49.4543 63.4414 44.7509 63.4486C44.7354 63.4486 44.7214 63.4486 44.7059 63.4486C28.946 63.4486 15.9283 50.6463 15.6786 34.8902C15.5529 26.955 18.5713 19.4974 24.1777 13.891C29.7841 8.28453 37.2431 5.26718 45.1771 5.39218C60.9484 5.64234 73.7594 18.6841 73.735 34.4646C73.7277 39.168 72.5681 43.8388 70.3817 47.9718C70.0739 48.5535 70.0208 49.2366 70.2345 49.859L75.2088 64.3353C75.2708 64.5165 75.2336 64.677 75.0983 64.8122Z" fill="#1ABC9C"/>
<path d="M58.8904 21.7988H30.5216C29.2066 21.7988 28.1406 22.8649 28.1406 24.1798C28.1406 25.4948 29.2067 26.5607 30.5216 26.5607H58.8904C60.2054 26.5607 61.2713 25.4946 61.2713 24.1798C61.2713 22.8649 60.2054 21.7988 58.8904 21.7988Z" fill="#1ABC9C"/>
<path d="M58.8904 31.5912H30.5216C29.2066 31.5912 28.1406 32.6573 28.1406 33.9721C28.1406 35.287 29.2067 36.3531 30.5216 36.3531H58.8904C60.2054 36.3531 61.2713 35.287 61.2713 33.9721C61.2713 32.6573 60.2054 31.5912 58.8904 31.5912Z" fill="#1ABC9C"/>
<path d="M47.9686 41.3832H30.5196C29.2046 41.3832 28.1387 42.4493 28.1387 43.7641C28.1387 45.0791 29.2048 46.1451 30.5196 46.1451H47.9684C49.2834 46.1451 50.3493 45.079 50.3493 43.7641C50.3493 42.4493 49.2836 41.3832 47.9686 41.3832Z" fill="#1ABC9C"/>
</g>
<defs>
<clipPath id="clip0">
<rect width="80" height="80" fill="white"/>
</clipPath>
</defs>
</svg>
