<svg width="80" height="80" viewBox="0 0 80 80" fill="none" xmlns="http://www.w3.org/2000/svg">
<g clip-path="url(#clip0)">
<path d="M42.6013 50.8107C41.1073 50.2825 39.4609 49.6493 38.5768 48.9557C38.5337 48.9219 38.4634 48.763 38.4607 48.5185C38.464 47.9863 38.7646 47.3925 39.3193 47.2253C40.2903 46.9311 41.2119 47.1244 41.8166 47.5722C42.7711 48.4414 44.2494 48.3753 45.1222 47.4228C45.9939 46.4714 45.9319 44.9955 44.986 44.1198C44.9703 44.1061 44.9719 44.1133 44.9891 44.0947C44.4636 43.6101 43.5424 43.0245 42.3472 42.6767V42.479C42.3472 41.1846 41.2978 40.1353 40.0034 40.1353C38.7411 40.1353 37.6596 41.1434 37.6596 42.5025V42.8184C33.4352 44.3536 32.4615 50.1408 35.6837 52.6673C37.154 53.8201 39.2551 54.6217 41.0387 55.2528C41.9955 55.5912 42.3539 56.2634 42.2133 57.0998C42.0961 57.7975 41.4951 58.9809 39.9876 58.9909C38.4217 59.0022 38.0553 58.9434 36.9129 58.1961C35.8295 57.4875 34.3771 57.7909 33.6683 58.8744C32.9747 59.9345 33.2357 61.4149 34.3462 62.1417C35.5921 62.9572 36.579 63.3613 37.6595 63.5505V63.776C37.6595 65.0704 38.7089 66.1197 40.0033 66.1197C41.2656 66.1197 42.347 65.1116 42.347 63.7525V63.2855C48.0613 61.2206 48.7423 52.9813 42.6013 50.8107Z" fill="#3498DB"/>
<path d="M75.7182 39.0422C76.124 38.5783 76.3096 37.996 76.2979 37.4515C76.1476 30.5509 73.3168 24.3676 67.2499 21.123C63.5298 19.1346 59.187 18.5394 54.9737 18.6219C54.9894 18.6219 54.754 18.916 60.2767 11.524C63.9598 7.09459 61.0331 0.378278 55.3285 0.017493C54.8312 -0.0139136 54.3508 -0.0384451 53.7644 0.275933C53.5393 0.396872 53.3266 0.559998 53.155 0.745469C53.1268 0.775313 50.6002 3.41018 46.2887 4.75707C44.2823 1.49423 40.9088 0.334684 40.741 0.278746C40.2526 0.115931 39.7154 0.11265 39.1863 0.304058C37.2364 1.00672 35.0163 2.63455 33.7111 4.75691C31.3865 4.03081 28.6937 2.55705 26.9399 0.840782C26.6402 0.536561 26.3699 0.283589 25.8568 0.117338C25.6613 0.0537433 25.3923 0.0020241 25.1326 0.0020241C19.1556 0.0020241 15.9286 6.95928 19.7232 11.524L25.0262 18.6219C22.658 18.5755 20.2766 18.7428 17.9831 19.2416C8.60429 21.2779 3.89987 28.351 3.70174 37.4515C3.67346 38.7455 4.69988 39.8176 5.99395 39.8457C7.29475 39.8718 8.35991 38.8476 8.38804 37.5535C8.46507 34.0159 9.4143 29.1697 13.4989 26.1713C16.8898 23.6816 21.5091 23.1532 25.6784 23.3247C10.1991 44.6378 10.5799 44.1128 10.5512 44.1545C3.35361 54.6215 6.96693 69.0021 18.1489 74.7951C18.7108 75.0857 19.0006 75.2187 19.731 75.5437C33.135 81.4859 46.8736 81.487 60.2842 75.537C60.6734 75.3643 61.0812 75.1804 61.4643 74.9918C72.5454 69.5432 76.5135 55.6687 70.0861 45.139C69.4941 44.1656 70.581 45.7123 54.3213 23.3247C58.4896 23.1532 63.1094 23.6815 66.5008 26.1713C70.5854 29.1697 71.5346 34.0159 71.6116 37.5535C71.6583 39.7004 74.3227 40.6405 75.7182 39.0422ZM65.8572 47.2176C71.2552 55.5872 68.0191 66.8424 58.9803 70.983C46.3706 76.7593 33.6344 76.765 21.0197 70.983C11.9399 66.8236 8.76726 55.5532 14.1428 47.2178C14.4245 46.7817 13.1134 48.6025 31.0583 23.8946C32.5972 24.1462 34.207 24.4763 35.8855 24.8849C35.3014 27.1376 34.2058 29.3425 32.3441 30.7384C30.8604 31.8509 31.2044 34.1486 32.9134 34.8005C33.1378 34.8861 33.4253 34.9575 33.752 34.9575C34.6238 34.9575 35.1413 34.5264 35.7175 34.0383C37.7519 32.3155 39.1344 30.0045 40.0002 27.4604C40.8718 30.0211 42.2593 32.3247 44.2829 34.0383C44.8761 34.5408 45.3828 34.9575 46.2484 34.9575C46.5186 34.9575 46.8089 34.9066 47.0854 34.8011C48.8 34.1475 49.1366 31.8484 47.6562 30.7384C45.7962 29.3437 44.6986 27.1368 44.1148 24.8849C44.1837 24.8849 46.0798 24.3626 48.942 23.8946C66.9797 48.7308 65.58 46.7884 65.8572 47.2176ZM23.4383 8.66508C23.2932 8.47133 22.7521 7.92351 22.786 6.96975C22.8288 5.9538 23.4908 5.11082 24.3419 4.81707C26.6899 6.85818 29.8106 8.58773 33.2173 9.49227C33.5075 9.57087 34.5633 9.83837 34.8378 9.83837C35.9253 9.91446 36.8936 9.23321 37.2235 8.24351C37.5871 7.15241 38.3346 6.23193 39.2907 5.5363C39.7718 5.18629 39.9921 5.10223 39.9921 5.08661C40.001 5.0816 39.9983 5.08129 40.0077 5.08661C40.1412 5.12004 40.8571 5.62114 41.2518 5.97661C42.5431 7.14194 42.6874 8.15226 42.9401 8.61914C43.1459 8.99899 43.4565 9.32665 43.8714 9.55477C44.6632 9.99056 45.3172 9.85853 46.1984 9.63821C49.9192 8.70805 53.0829 7.05569 55.6579 4.81707C57.0216 5.28817 57.7263 7.06084 56.784 8.38101C56.6443 8.57492 56.7791 8.37398 56.3246 8.98242C55.8285 9.64493 53.4463 12.8348 48.697 19.1914C45.7975 19.6374 42.8173 20.3253 39.9999 21.1208C37.2054 20.3316 34.2216 19.6403 31.3034 19.1916C31.2878 19.1891 31.1767 19.0224 23.4383 8.66508Z" fill="#3498DB"/>
</g>
<defs>
<clipPath id="clip0">
<rect width="80" height="80" fill="white"/>
</clipPath>
</defs>
</svg>
