<svg width="194" height="78" viewBox="0 0 194 78" fill="none" xmlns="http://www.w3.org/2000/svg">
<rect width="8" height="70" fill="#3498DB"/>
<rect x="10" width="8" height="64" fill="#E74D3D"/>
<rect x="20" width="8" height="78" fill="#F1C40F"/>
<rect x="30" width="8" height="70" fill="#1ABC9C"/>
<path d="M54 42.33C52.8 42.33 51.74 42.14 50.82 41.76C49.9 41.38 49.13 40.84 48.51 40.14C47.91 39.42 47.45 38.57 47.13 37.59C46.81 36.59 46.65 35.49 46.65 34.29C46.65 33.07 46.81 31.96 47.13 30.96C47.47 29.96 47.95 29.1 48.57 28.38C49.19 27.66 49.94 27.11 50.82 26.73C51.7 26.33 52.69 26.13 53.79 26.13C54.63 26.13 55.41 26.2 56.13 26.34C56.87 26.48 57.44 26.66 57.84 26.88L57.33 28.56C56.93 28.36 56.48 28.2 55.98 28.08C55.48 27.96 54.81 27.9 53.97 27.9C52.25 27.9 50.94 28.46 50.04 29.58C49.16 30.68 48.72 32.25 48.72 34.29C48.72 35.21 48.82 36.06 49.02 36.84C49.22 37.6 49.54 38.26 49.98 38.82C50.44 39.36 51.02 39.79 51.72 40.11C52.44 40.41 53.31 40.56 54.33 40.56C55.17 40.56 55.87 40.47 56.43 40.29C57.01 40.09 57.43 39.92 57.69 39.78L58.11 41.46C57.75 41.66 57.18 41.85 56.4 42.03C55.64 42.23 54.84 42.33 54 42.33ZM66.6588 26.19C67.2988 26.19 67.8988 26.24 68.4588 26.34C69.0388 26.44 69.4388 26.54 69.6588 26.64L69.2688 28.32C69.1088 28.24 68.7788 28.16 68.2788 28.08C67.7988 27.98 67.1588 27.93 66.3588 27.93C65.5188 27.93 64.8388 27.99 64.3188 28.11C63.8188 28.23 63.4888 28.33 63.3288 28.41V42H61.3788V27.21C61.8788 26.99 62.5688 26.77 63.4488 26.55C64.3288 26.31 65.3988 26.19 66.6588 26.19ZM85.8295 34.26C85.8295 35.48 85.6495 36.59 85.2895 37.59C84.9495 38.59 84.4595 39.44 83.8195 40.14C83.1995 40.84 82.4595 41.39 81.5995 41.79C80.7395 42.17 79.7895 42.36 78.7495 42.36C77.7095 42.36 76.7595 42.17 75.8995 41.79C75.0395 41.39 74.2895 40.84 73.6495 40.14C73.0295 39.44 72.5395 38.59 72.1795 37.59C71.8395 36.59 71.6695 35.48 71.6695 34.26C71.6695 33.04 71.8395 31.93 72.1795 30.93C72.5395 29.93 73.0295 29.08 73.6495 28.38C74.2895 27.66 75.0395 27.11 75.8995 26.73C76.7595 26.33 77.7095 26.13 78.7495 26.13C79.7895 26.13 80.7395 26.33 81.5995 26.73C82.4595 27.11 83.1995 27.66 83.8195 28.38C84.4595 29.08 84.9495 29.93 85.2895 30.93C85.6495 31.93 85.8295 33.04 85.8295 34.26ZM83.7595 34.26C83.7595 32.32 83.3095 30.78 82.4095 29.64C81.5095 28.48 80.2895 27.9 78.7495 27.9C77.2095 27.9 75.9895 28.48 75.0895 29.64C74.1895 30.78 73.7395 32.32 73.7395 34.26C73.7395 36.2 74.1895 37.74 75.0895 38.88C75.9895 40.02 77.2095 40.59 78.7495 40.59C80.2895 40.59 81.5095 40.02 82.4095 38.88C83.3095 37.74 83.7595 36.2 83.7595 34.26ZM100.05 26.49C100.23 27.49 100.46 28.56 100.74 29.7C101.04 30.82 101.36 31.97 101.7 33.15C102.06 34.31 102.43 35.46 102.81 36.6C103.21 37.74 103.61 38.81 104.01 39.81C104.35 39.05 104.71 38.13 105.09 37.05C105.47 35.95 105.85 34.8 106.23 33.6C106.61 32.38 106.96 31.16 107.28 29.94C107.62 28.7 107.9 27.55 108.12 26.49H110.04C109.32 29.53 108.53 32.31 107.67 34.83C106.83 37.35 105.9 39.74 104.88 42H103.05C102.75 41.3 102.43 40.52 102.09 39.66C101.77 38.78 101.43 37.85 101.07 36.87C100.73 35.87 100.39 34.83 100.05 33.75C99.7305 32.65 99.4205 31.53 99.1205 30.39C98.8205 31.53 98.5005 32.65 98.1605 33.75C97.8405 34.83 97.5005 35.87 97.1405 36.87C96.8005 37.85 96.4605 38.78 96.1205 39.66C95.8005 40.52 95.4905 41.3 95.1905 42H93.3305C92.3105 39.74 91.3705 37.35 90.5105 34.83C89.6705 32.31 88.8905 29.53 88.1705 26.49H90.2405C90.4605 27.55 90.7305 28.7 91.0505 29.94C91.3905 31.16 91.7505 32.38 92.1305 33.6C92.5105 34.8 92.8905 35.94 93.2705 37.02C93.6705 38.1 94.0405 39.02 94.3805 39.78C94.7605 38.78 95.1405 37.71 95.5205 36.57C95.9205 35.43 96.2905 34.28 96.6305 33.12C96.9705 31.96 97.2905 30.82 97.5905 29.7C97.8905 28.56 98.1505 27.49 98.3705 26.49H100.05ZM125.652 41.52C125.072 41.72 124.332 41.91 123.432 42.09C122.532 42.27 121.392 42.36 120.012 42.36C118.872 42.36 117.832 42.18 116.892 41.82C115.972 41.44 115.172 40.9 114.492 40.2C113.832 39.5 113.312 38.65 112.932 37.65C112.572 36.65 112.392 35.52 112.392 34.26C112.392 33.08 112.542 32 112.842 31.02C113.162 30.02 113.622 29.16 114.222 28.44C114.822 27.72 115.552 27.16 116.412 26.76C117.292 26.36 118.292 26.16 119.412 26.16C120.432 26.16 121.312 26.31 122.052 26.61C122.812 26.89 123.362 27.16 123.702 27.42V19.08L125.652 18.72V41.52ZM123.702 29.31C123.522 29.17 123.292 29.02 123.012 28.86C122.752 28.7 122.442 28.55 122.082 28.41C121.722 28.27 121.332 28.16 120.912 28.08C120.492 27.98 120.052 27.93 119.592 27.93C118.632 27.93 117.822 28.1 117.162 28.44C116.522 28.78 116.002 29.24 115.602 29.82C115.202 30.38 114.912 31.05 114.732 31.83C114.552 32.59 114.462 33.4 114.462 34.26C114.462 36.3 114.972 37.87 115.992 38.97C117.012 40.05 118.362 40.59 120.042 40.59C121.002 40.59 121.772 40.55 122.352 40.47C122.952 40.37 123.402 40.27 123.702 40.17V29.31Z" fill="#819FB1"/>
<path d="M60.867 53.846C60.3203 53.7093 59.678 53.5727 58.94 53.436C58.202 53.272 57.4093 53.19 56.562 53.19C56.1793 53.19 55.7147 53.231 55.168 53.313C54.6487 53.3677 54.2523 53.436 53.979 53.518V70H47.87V49.582C48.9633 49.1993 50.248 48.844 51.724 48.516C53.2273 48.1607 54.8947 47.983 56.726 47.983C57.054 47.983 57.4503 48.0103 57.915 48.065C58.3797 48.0923 58.8443 48.147 59.309 48.229C59.7737 48.2837 60.2383 48.3657 60.703 48.475C61.1677 48.557 61.564 48.6663 61.892 48.803L60.867 53.846ZM62.1015 59.381C62.1015 57.4677 62.3885 55.8003 62.9625 54.379C63.5638 52.9303 64.3428 51.7277 65.2995 50.771C66.2562 49.8143 67.3495 49.09 68.5795 48.598C69.8368 48.106 71.1215 47.86 72.4335 47.86C75.4948 47.86 77.9138 48.803 79.6905 50.689C81.4672 52.5477 82.3555 55.2947 82.3555 58.93C82.3555 59.2853 82.3418 59.6817 82.3145 60.119C82.2872 60.529 82.2598 60.898 82.2325 61.226H68.3745C68.5112 62.4833 69.0988 63.481 70.1375 64.219C71.1762 64.957 72.5702 65.326 74.3195 65.326C75.4402 65.326 76.5335 65.2303 77.5995 65.039C78.6928 64.8203 79.5812 64.5607 80.2645 64.26L81.0845 69.221C80.7565 69.385 80.3192 69.549 79.7725 69.713C79.2258 69.877 78.6108 70.0137 77.9275 70.123C77.2715 70.2597 76.5608 70.369 75.7955 70.451C75.0302 70.533 74.2648 70.574 73.4995 70.574C71.5588 70.574 69.8642 70.287 68.4155 69.713C66.9942 69.139 65.8052 68.36 64.8485 67.376C63.9192 66.3647 63.2222 65.1757 62.7575 63.809C62.3202 62.4423 62.1015 60.9663 62.1015 59.381ZM76.4515 57.044C76.4242 56.5247 76.3285 56.019 76.1645 55.527C76.0278 55.035 75.7955 54.5977 75.4675 54.215C75.1668 53.8323 74.7705 53.518 74.2785 53.272C73.8138 53.026 73.2262 52.903 72.5155 52.903C71.8322 52.903 71.2445 53.026 70.7525 53.272C70.2605 53.4907 69.8505 53.7913 69.5225 54.174C69.1945 54.5567 68.9348 55.0077 68.7435 55.527C68.5795 56.019 68.4565 56.5247 68.3745 57.044H76.4515ZM99.2468 59.381C99.2468 57.495 98.8232 55.9917 97.9758 54.871C97.1285 53.723 95.8712 53.149 94.2038 53.149C93.6572 53.149 93.1515 53.1763 92.6868 53.231C92.2222 53.2583 91.8395 53.2993 91.5388 53.354V64.383C91.9215 64.629 92.4135 64.834 93.0148 64.998C93.6435 65.162 94.2722 65.244 94.9008 65.244C97.7982 65.244 99.2468 63.2897 99.2468 59.381ZM105.479 59.217C105.479 60.8843 105.274 62.4013 104.864 63.768C104.454 65.1347 103.853 66.31 103.06 67.294C102.267 68.278 101.283 69.0433 100.108 69.59C98.9325 70.1367 97.5795 70.41 96.0488 70.41C95.2015 70.41 94.4088 70.328 93.6708 70.164C92.9328 70 92.2222 69.7677 91.5388 69.467V77.585H85.4298V49.172C85.9765 49.008 86.6052 48.8577 87.3158 48.721C88.0265 48.557 88.7645 48.4203 89.5298 48.311C90.3225 48.2017 91.1152 48.1197 91.9078 48.065C92.7278 47.983 93.5068 47.942 94.2448 47.942C96.0215 47.942 97.6068 48.2153 99.0008 48.762C100.395 49.2813 101.57 50.033 102.527 51.017C103.484 51.9737 104.208 53.149 104.7 54.543C105.219 55.937 105.479 57.495 105.479 59.217ZM126.943 69.262C125.904 69.5627 124.565 69.836 122.925 70.082C121.285 70.3553 119.563 70.492 117.759 70.492C115.928 70.492 114.397 70.246 113.167 69.754C111.964 69.262 111.008 68.5787 110.297 67.704C109.586 66.802 109.081 65.736 108.78 64.506C108.479 63.276 108.329 61.923 108.329 60.447V48.434H114.438V59.709C114.438 61.677 114.698 63.0983 115.217 63.973C115.736 64.8477 116.707 65.285 118.128 65.285C118.565 65.285 119.03 65.2713 119.522 65.244C120.014 65.1893 120.451 65.1347 120.834 65.08V48.434H126.943V69.262ZM144.855 59.053C144.855 55.117 143.406 53.149 140.509 53.149C139.88 53.149 139.251 53.231 138.623 53.395C138.021 53.559 137.529 53.764 137.147 54.01V65.121C137.447 65.1757 137.83 65.2303 138.295 65.285C138.759 65.3123 139.265 65.326 139.812 65.326C141.479 65.326 142.736 64.752 143.584 63.604C144.431 62.456 144.855 60.939 144.855 59.053ZM151.087 59.217C151.087 60.939 150.827 62.497 150.308 63.891C149.816 65.285 149.091 66.474 148.135 67.458C147.178 68.442 146.003 69.2073 144.609 69.754C143.215 70.2733 141.629 70.533 139.853 70.533C139.115 70.533 138.336 70.492 137.516 70.41C136.723 70.3553 135.93 70.2733 135.138 70.164C134.372 70.0547 133.634 69.9317 132.924 69.795C132.213 69.631 131.584 69.467 131.038 69.303V39.168L137.147 38.184V48.926C137.83 48.6253 138.541 48.393 139.279 48.229C140.017 48.065 140.809 47.983 141.657 47.983C143.187 47.983 144.54 48.2563 145.716 48.803C146.891 49.3223 147.875 50.074 148.668 51.058C149.46 52.042 150.062 53.231 150.472 54.625C150.882 55.9917 151.087 57.5223 151.087 59.217ZM162.752 70.41C160.975 70.3827 159.526 70.1913 158.406 69.836C157.312 69.4807 156.438 68.9887 155.782 68.36C155.153 67.704 154.716 66.925 154.47 66.023C154.251 65.0937 154.142 64.055 154.142 62.907V39.168L160.251 38.184V61.677C160.251 62.2237 160.292 62.7157 160.374 63.153C160.456 63.5903 160.606 63.9593 160.825 64.26C161.071 64.5607 161.412 64.8067 161.85 64.998C162.287 65.1893 162.875 65.3123 163.613 65.367L162.752 70.41ZM171.583 70H165.474V48.434H171.583V70ZM172.157 42.202C172.157 43.3227 171.788 44.211 171.05 44.867C170.34 45.4957 169.492 45.81 168.508 45.81C167.524 45.81 166.663 45.4957 165.925 44.867C165.215 44.211 164.859 43.3227 164.859 42.202C164.859 41.0813 165.215 40.2067 165.925 39.578C166.663 38.922 167.524 38.594 168.508 38.594C169.492 38.594 170.34 38.922 171.05 39.578C171.788 40.2067 172.157 41.0813 172.157 42.202ZM174.661 59.217C174.661 57.659 174.907 56.1967 175.399 54.83C175.918 53.436 176.656 52.2333 177.613 51.222C178.57 50.1833 179.731 49.3633 181.098 48.762C182.465 48.1607 184.023 47.86 185.772 47.86C186.92 47.86 187.972 47.9693 188.929 48.188C189.886 48.3793 190.815 48.6663 191.717 49.049L190.446 53.928C189.872 53.7093 189.243 53.518 188.56 53.354C187.877 53.19 187.111 53.108 186.264 53.108C184.46 53.108 183.107 53.6683 182.205 54.789C181.33 55.9097 180.893 57.3857 180.893 59.217C180.893 61.1577 181.303 62.661 182.123 63.727C182.97 64.793 184.433 65.326 186.51 65.326C187.248 65.326 188.041 65.2577 188.888 65.121C189.735 64.9843 190.514 64.7657 191.225 64.465L192.086 69.467C191.375 69.7677 190.487 70.0273 189.421 70.246C188.355 70.4647 187.18 70.574 185.895 70.574C183.927 70.574 182.232 70.287 180.811 69.713C179.39 69.1117 178.214 68.3053 177.285 67.294C176.383 66.2827 175.713 65.0937 175.276 63.727C174.866 62.333 174.661 60.8297 174.661 59.217Z" fill="#FFF"/>
</svg>
