<svg width="80" height="80" viewBox="0 0 80 80" fill="none" xmlns="http://www.w3.org/2000/svg">
<path d="M72.8833 7.7147C71.7794 6.41658 70.1696 5.67236 68.4666 5.67236H62.877V3.92391C62.877 1.76032 61.1166 0 58.9531 0H21.0481C18.8843 0 17.1243 1.76032 17.1243 3.92376V5.6722H11.5341C9.83116 5.6722 8.22116 6.41658 7.11741 7.71455C6.02491 8.99908 5.55272 10.6863 5.82225 12.3433C7.291 21.3746 12.9746 29.3532 21.041 33.7296C21.7781 35.5016 22.6128 37.1801 23.5423 38.7438C26.5114 43.7399 30.2025 47.1927 34.2653 48.8626C34.677 53.0257 31.9068 56.9696 27.7349 57.9095C27.726 57.9115 27.7198 57.9146 27.711 57.9167C26.8968 58.1112 26.2907 58.8418 26.2907 59.7156V68.2098H22.8554C19.7926 68.2098 17.3009 70.7015 17.3009 73.7644V78.1484C17.3009 79.1711 18.1298 80 19.1524 80H61.0255C62.0481 80 62.877 79.1711 62.877 78.1484V73.7644C62.877 70.7015 60.3853 68.2098 57.3225 68.2098H53.8869V59.7157C53.8869 58.8403 53.2786 58.1086 52.4622 57.9157C52.4545 57.9139 52.4472 57.9114 52.4395 57.9095C48.2361 56.9634 45.4608 52.9798 45.9158 48.7854C49.9076 47.0885 53.5341 43.6665 56.4594 38.7441C57.3889 37.1802 58.2234 35.5016 58.9606 33.7293C67.0266 29.3527 72.7099 21.3743 74.1786 12.3433C74.4482 10.6863 73.976 8.99924 72.8833 7.7147ZM9.47726 11.7488C9.38101 11.1571 9.5446 10.5763 9.93804 10.1135C10.3373 9.64408 10.9188 9.37502 11.534 9.37502H17.1241V12.7816C17.1241 18.1232 17.8059 23.2972 19.0979 28.029C14.0204 24.0166 10.5244 18.188 9.47726 11.7488ZM57.3225 71.9131C58.3434 71.9131 59.1741 72.7437 59.1741 73.7647V76.2972H21.0038V73.7647C21.0038 72.7437 21.8345 71.9131 22.8554 71.9131H57.3225ZM50.1837 61.5673V68.21H29.9942V61.5673H50.1837ZM34.85 57.8643C35.3076 57.3606 35.7261 56.8145 36.1003 56.23C37.3342 54.302 37.9818 52.1117 38.0109 49.8746C38.6686 49.9642 39.3323 50.0121 40.0017 50.0121C40.73 50.0121 41.4515 49.9562 42.1661 49.8503C42.2083 52.8564 43.3783 55.7018 45.3456 57.8642H34.85V57.8643ZM59.1738 12.7817C59.1738 21.9035 57.0791 30.4519 53.2758 36.8519C49.652 42.9504 44.9376 46.309 40.0014 46.309C35.0643 46.309 30.3496 42.9506 26.7254 36.8523C22.922 30.4521 20.8273 21.9036 20.8273 12.7821V3.92376C20.8273 3.80188 20.9263 3.70298 21.0479 3.70298H58.9528C59.0747 3.70298 59.1738 3.80204 59.1738 3.92376V12.7817ZM70.5236 11.7488C69.4764 18.1875 65.9808 24.016 60.9035 28.0286C62.1953 23.2969 62.877 18.1232 62.877 12.7817V9.37517H68.4666C69.0819 9.37517 69.6635 9.64439 70.0625 10.1136C70.456 10.5763 70.6197 11.1571 70.5236 11.7488Z" fill="#E74D3D"/>
<path d="M51.2402 19.0091C51.0222 18.3391 50.4428 17.8507 49.7455 17.7491L44.1583 16.9373L41.6597 11.8744C41.3477 11.2426 40.7041 10.8424 39.9994 10.8424C39.2945 10.8424 38.6509 11.2426 38.3391 11.8744L35.8405 16.9373L30.2533 17.7491C29.5558 17.8504 28.9764 18.339 28.7586 19.0093C28.5409 19.6798 28.7225 20.4154 29.2272 20.9074L33.2701 24.8482L32.3156 30.4128C32.1964 31.1074 32.4819 31.8093 33.0522 32.2237C33.6222 32.6379 34.3783 32.6925 35.002 32.3646L39.9994 29.7376L44.9966 32.3646C45.2675 32.507 45.5633 32.5771 45.8578 32.5771C46.2416 32.5771 46.6238 32.4579 46.9463 32.2235C47.5166 31.8092 47.802 31.1073 47.6828 30.4126L46.7283 24.8481L50.7713 20.9073C51.2763 20.4154 51.4578 19.6796 51.2402 19.0091ZM43.4469 22.8759C43.0105 23.3012 42.8113 23.914 42.9144 24.5148L43.3991 27.3413L40.8608 26.0068C40.5912 25.8649 40.2952 25.7943 39.9992 25.7943C39.7033 25.7943 39.4073 25.8652 39.1377 26.0068L36.5994 27.3413L37.0841 24.5148C37.1872 23.9142 36.988 23.3013 36.5516 22.8759L34.4983 20.8743L37.3361 20.4618C37.9391 20.3743 38.4605 19.9954 38.7302 19.449L39.9994 16.8774L41.2684 19.449C41.5383 19.9954 42.0594 20.3741 42.6625 20.4618L45.5003 20.8743L43.4469 22.8759Z" fill="#E74D3D"/>
</svg>
