<svg width="80" height="80" viewBox="0 0 80 80" fill="none" xmlns="http://www.w3.org/2000/svg">
<g clip-path="url(#clip0)">
<path d="M49.4858 33.8865L58.8822 27.0314C60.7099 25.698 59.7622 22.7942 57.5008 22.7942H45.8966L42.3088 11.7059C41.6114 9.55155 38.5477 9.54717 37.8489 11.7059L34.2611 22.7942H22.6569C20.3944 22.7942 19.4488 25.6986 21.2755 27.0314L30.6719 33.8865L27.0814 44.9823C26.3839 47.1381 28.8635 48.9319 30.6927 47.5973L40.0786 40.7497L49.4645 47.5973C51.283 48.9236 53.775 47.1431 53.0758 44.9823L49.4858 33.8865ZM44.5036 33.715L46.3928 39.5536L41.4605 35.955C40.6372 35.3545 39.5208 35.3547 38.6977 35.955L33.7653 39.5536L35.6546 33.715C35.9663 32.7515 35.6241 31.6969 34.806 31.1L29.8464 27.4817H35.9664C36.9828 27.4817 37.8835 26.8265 38.1963 25.8595L40.0791 20.0408L41.9619 25.8595C42.2749 26.8264 43.1755 27.4817 44.1917 27.4817H50.3117L45.3522 31.1C44.5341 31.6969 44.1919 32.7515 44.5036 33.715Z" fill="white"/>
<path d="M78.0566 73.8941L64.6459 50.3272C68.6876 45.0497 71.0948 38.4483 71.0948 31.292C71.0946 14.0375 57.111 0 39.9227 0C22.7345 0 8.75086 14.0375 8.75086 31.292C8.75086 38.5013 11.1932 45.1477 15.2893 50.4444L1.94492 73.8945C0.397732 76.615 2.35492 80 5.48695 80H25.4166C27.5437 80 29.5193 78.8498 30.5724 76.9986L38.7884 62.5611C39.6434 62.5919 40.2849 62.5931 41.2112 62.5552L49.4293 76.9984C50.4826 78.85 52.4582 80.0002 54.5852 80.0002H74.5149C77.6434 80 79.606 76.6184 78.0566 73.8941ZM26.498 74.6805C26.2763 75.0703 25.862 75.3125 25.4165 75.3125H6.53133L18.6034 54.0983C22.7482 58.0052 27.9535 60.7902 33.7348 61.9636L26.498 74.6805ZM13.4384 31.292C13.4384 16.6222 25.3191 4.6875 39.9227 4.6875C54.5263 4.6875 66.4071 16.6222 66.4071 31.292C66.4071 45.9619 54.5263 57.8966 39.9227 57.8966C25.3191 57.8966 13.4384 45.9617 13.4384 31.292ZM54.5852 75.3125C54.1398 75.3125 53.7254 75.0703 53.5035 74.6803L46.2515 61.9352C52.0237 60.7355 57.2165 57.9284 61.3443 54.003L73.4704 75.3125H54.5852Z" fill="white"/>
</g>
<defs>
<clipPath id="clip0">
<rect width="80" height="80" fill="white"/>
</clipPath>
</defs>
</svg>
