<svg width="80" height="81" viewBox="0 0 80 81" fill="none" xmlns="http://www.w3.org/2000/svg">
<g clip-path="url(#clip0)">
<path d="M72.6355 10.3376H59.9167V2.63977C59.9167 1.3454 58.8673 0.296021 57.573 0.296021H2.34375C1.04937 0.296021 0 1.3454 0 2.63977V67.9106C0 74.7399 5.55609 80.296 12.3855 80.296C12.3855 80.296 51.3202 80.2962 67.6147 80.2962C74.4548 80.296 80 74.7509 80 67.9106V17.7021C80 13.6413 76.6963 10.3376 72.6355 10.3376ZM65.7705 15.0251C65.4423 15.867 65.2709 16.7713 65.2709 17.7023V25.4002H59.9167V15.0252H65.7705V15.0251ZM12.3855 75.6084C8.14078 75.6084 4.6875 72.1552 4.6875 67.9106V4.98352H55.2292V67.9106C55.2292 70.8207 56.2355 73.4945 57.9156 75.6084H12.3855ZM75.3125 67.9106C75.3125 72.1621 71.8661 75.6085 67.6145 75.6085C64.1805 75.6085 61.2727 73.3595 60.2811 70.2543H67.6145C68.9089 70.2543 69.9583 69.2049 69.9583 67.9106C69.9583 66.6162 68.9089 65.5668 67.6145 65.5668H59.9166V60.2126H67.6145C68.9089 60.2126 69.9583 59.1632 69.9583 57.8688C69.9583 56.5745 68.9089 55.5251 67.6145 55.5251H59.9166V50.1709H67.6145C68.9089 50.1709 69.9583 49.1215 69.9583 47.8271C69.9583 46.5327 68.9089 45.4834 67.6145 45.4834H59.9166V40.1291H67.6145C68.9089 40.1291 69.9583 39.0798 69.9583 37.7854C69.9583 36.491 68.9089 35.4416 67.6145 35.4416H59.9166V30.0874H67.6145C68.9089 30.0874 69.9583 29.0381 69.9583 27.7437V17.7023C69.9583 16.2399 71.1406 15.0251 72.6353 15.0251C74.1114 15.0251 75.3123 16.2262 75.3123 17.7023V67.9106H75.3125Z" fill="#819FB1"/>
<path d="M47.5306 10.3376H12.3848C11.0904 10.3376 10.041 11.387 10.041 12.6814C10.041 13.9758 11.0904 15.0251 12.3848 15.0251H47.5306C48.8249 15.0251 49.8743 13.9758 49.8743 12.6814C49.8743 11.387 48.8249 10.3376 47.5306 10.3376Z" fill="#819FB1"/>
<path d="M47.5306 45.4834H34.9785C33.6841 45.4834 32.6348 46.5328 32.6348 47.8271C32.6348 49.1215 33.6841 50.1709 34.9785 50.1709H47.5306C48.8249 50.1709 49.8743 49.1215 49.8743 47.8271C49.8743 46.5328 48.8249 45.4834 47.5306 45.4834Z" fill="#819FB1"/>
<path d="M24.9368 45.4834H12.3848C11.0904 45.4834 10.041 46.5328 10.041 47.8271C10.041 49.1215 11.0904 50.1709 12.3848 50.1709H24.9368C26.2312 50.1709 27.2806 49.1215 27.2806 47.8271C27.2806 46.5328 26.2312 45.4834 24.9368 45.4834Z" fill="#819FB1"/>
<path d="M47.5306 65.5668H34.9785C33.6841 65.5668 32.6348 66.6161 32.6348 67.9105C32.6348 69.2049 33.6841 70.2543 34.9785 70.2543H47.5306C48.8249 70.2543 49.8743 69.2049 49.8743 67.9105C49.8743 66.6161 48.8249 65.5668 47.5306 65.5668Z" fill="#819FB1"/>
<path d="M24.9368 65.5668H12.3848C11.0904 65.5668 10.041 66.6161 10.041 67.9105C10.041 69.2049 11.0904 70.2543 12.3848 70.2543H24.9368C26.2312 70.2543 27.2806 69.2049 27.2806 67.9105C27.2806 66.6161 26.2312 65.5668 24.9368 65.5668Z" fill="#819FB1"/>
<path d="M47.5306 55.5251H34.9785C33.6841 55.5251 32.6348 56.5745 32.6348 57.8689C32.6348 59.1633 33.6841 60.2127 34.9785 60.2127H47.5306C48.8249 60.2127 49.8743 59.1633 49.8743 57.8689C49.8743 56.5745 48.8249 55.5251 47.5306 55.5251Z" fill="#819FB1"/>
<path d="M24.9368 55.5251H12.3848C11.0904 55.5251 10.041 56.5745 10.041 57.8689C10.041 59.1633 11.0904 60.2127 12.3848 60.2127H24.9368C26.2312 60.2127 27.2806 59.1633 27.2806 57.8689C27.2806 56.5745 26.2312 55.5251 24.9368 55.5251Z" fill="#819FB1"/>
<path d="M47.5306 20.3792H12.3848C11.0904 20.3792 10.041 21.4285 10.041 22.7229V37.7854C10.041 39.0798 11.0904 40.1292 12.3848 40.1292H47.5306C48.8249 40.1292 49.8743 39.0798 49.8743 37.7854V22.7229C49.8743 21.4285 48.8249 20.3792 47.5306 20.3792ZM45.1868 35.4418H14.7285V25.0668H45.1868V35.4418Z" fill="#819FB1"/>
</g>
<defs>
<clipPath id="clip0">
<rect width="80" height="80" fill="white" transform="translate(0 0.296021)"/>
</clipPath>
</defs>
</svg>
