<svg width="80" height="80" viewBox="0 0 80 80" fill="none" xmlns="http://www.w3.org/2000/svg">
<path d="M39.4289 38.5363C44.7231 38.5363 49.3068 36.6375 53.0532 32.8912C56.7983 29.1455 58.6977 24.5623 58.6977 19.2675C58.6977 13.9746 56.7989 9.39085 53.0525 5.64391C49.3062 1.8988 44.7225 0 39.4289 0C34.1341 0 29.551 1.8988 25.8053 5.64452C22.0596 9.39024 20.1602 13.974 20.1602 19.2675C20.1602 24.5623 22.0596 29.1461 25.8053 32.8918C29.5522 36.6369 34.136 38.5363 39.4289 38.5363ZM29.1207 8.95933C31.9948 6.08519 35.3664 4.6881 39.4289 4.6881C43.4908 4.6881 46.863 6.08519 49.7377 8.95933C52.6119 11.8341 54.0096 15.2063 54.0096 19.2675C54.0096 23.33 52.6119 26.7016 49.7377 29.5764C46.863 32.4511 43.4908 33.8482 39.4289 33.8482C35.3676 33.8482 31.9961 32.4505 29.1207 29.5764C26.246 26.7022 24.8483 23.33 24.8483 19.2675C24.8483 15.2063 26.246 11.8341 29.1207 8.95933Z" fill="#F1C40F"/>
<path d="M73.145 61.5161C73.037 59.9572 72.8185 58.2568 72.4968 56.4611C72.1721 54.6521 71.754 52.9419 71.2535 51.3788C70.736 49.7632 70.0335 48.1677 69.1637 46.6388C68.2622 45.0519 67.2026 43.67 66.0137 42.533C64.7704 41.3434 63.2482 40.387 61.4879 39.6893C59.7338 38.9954 57.7898 38.6438 55.7104 38.6438C54.8937 38.6438 54.1039 38.9789 52.5787 39.9719C51.6399 40.5841 50.5419 41.2921 49.3163 42.0752C48.2684 42.7429 46.8487 43.3685 45.0951 43.9349C43.3843 44.4885 41.6473 44.7693 39.9322 44.7693C38.2183 44.7693 36.4813 44.4885 34.7692 43.9349C33.0175 43.3691 31.5972 42.7435 30.5511 42.0758C29.3371 41.3 28.2385 40.592 27.2857 39.9713C25.7617 38.9783 24.9719 38.6432 24.1552 38.6432C22.0752 38.6432 20.1318 38.9954 18.3783 39.6899C16.6192 40.3863 15.0964 41.3428 13.8519 42.5336C12.663 43.6713 11.6034 45.0525 10.7025 46.6388C9.83398 48.1677 9.13085 49.7626 8.61328 51.3794C8.1134 52.9425 7.69531 54.6521 7.3706 56.4611C7.04834 58.2544 6.83044 59.9554 6.72241 61.5179C6.61621 63.0456 6.5625 64.6356 6.5625 66.242C6.5625 70.418 7.89001 73.7988 10.5078 76.292C13.0932 78.7524 16.5137 79.9999 20.6744 79.9999H59.1949C63.3544 79.9999 66.7748 78.7524 69.3608 76.292C71.9792 73.8006 73.3068 70.4186 73.3068 66.2414C73.3062 64.6295 73.2518 63.0395 73.145 61.5161ZM66.1284 72.8954C64.4201 74.5214 62.152 75.3118 59.1942 75.3118H20.6744C17.716 75.3118 15.448 74.5214 13.7402 72.896C12.0648 71.3012 11.2506 69.1241 11.2506 66.242C11.2506 64.743 11.3 63.2629 11.3989 61.842C11.4954 60.448 11.6925 58.9166 11.9849 57.2894C12.2735 55.6823 12.641 54.1742 13.078 52.8088C13.4973 51.4996 14.0692 50.2032 14.7784 48.9544C15.4553 47.7643 16.2341 46.7431 17.0935 45.9204C17.8973 45.1507 18.9105 44.5209 20.1043 44.0485C21.2085 43.6114 22.4493 43.3722 23.7964 43.3362C23.9605 43.4235 24.2529 43.5901 24.7265 43.8989C25.6903 44.527 26.8011 45.2435 28.0291 46.0278C29.4134 46.9104 31.1969 47.7075 33.3276 48.3954C35.5059 49.0997 37.7276 49.4574 39.9328 49.4574C42.138 49.4574 44.3603 49.0997 46.5374 48.396C48.67 47.7069 50.4528 46.9104 51.8389 46.0266C53.0956 45.2234 54.1753 44.5276 55.1391 43.8989C55.6127 43.5907 55.9051 43.4235 56.0692 43.3362C57.4169 43.3722 58.6577 43.6114 59.7625 44.0485C60.9557 44.5209 61.9689 45.1514 62.7727 45.9204C63.6321 46.7425 64.4109 47.7637 65.0878 48.9551C65.7976 50.2032 66.3701 51.5002 66.7888 52.8082C67.2265 54.1754 67.5945 55.6829 67.8826 57.2888C68.1743 58.919 68.3721 60.451 68.4685 61.8426V61.8438C68.568 63.2592 68.6181 64.7387 68.6187 66.242C68.6181 69.1247 67.8038 71.3012 66.1284 72.8954Z" fill="#F1C40F"/>
</svg>
